<?xml version="1.0" encoding="UTF-8" standalone="no"?>
<!-- Created with Inkscape (http://www.inkscape.org/) -->

<svg
   version="1.1"
   id="svg1"
   width="1588.9655"
   height="811.03448"
   viewBox="0 0 1588.9655 811.03448"
   xmlns="http://www.w3.org/2000/svg"
   xmlns:svg="http://www.w3.org/2000/svg">
  <defs
     id="defs1" />
  <g
     id="g1">
    <path
       style="fill:#000000"
       d="m 201.70405,813.08062 c -42.3003,-9.1119 -73.60434,-32.3837 -92.62295,-68.8571 -10.52712,-20.1886 -14.07727,-35.2004 -14.06947,-59.4925 0.008,-25.2409 2.55279,-35.9404 13.9747,-58.7586 24.90919,-49.7626 76.43701,-77.2546 132.09563,-70.4779 52.30667,6.3685 94.93176,43.442 109.95932,95.6378 4.80049,16.6738 5.0948,46.689 0.62968,64.2194 -14.48033,56.8507 -64.01752,96.9841 -122.65656,99.3723 -10.47506,0.4266 -20.50156,-0.1768 -27.31035,-1.6434 z m 994.75865,-0.077 c -29.815,-6.0283 -53.4875,-19.0516 -73.0622,-40.1946 -36.7807,-39.7276 -45.1225,-96.9395 -21.2248,-145.5695 31.685,-64.4764 108.5709,-91.2046 172.9076,-60.1089 26.9899,13.045 46.5237,32.304 59.6815,58.8421 10.278,20.7299 14.142,37.0104 14.142,59.5862 0,35.053 -12.5879,65.5953 -37.4441,90.8518 -29.2132,29.6837 -75.8215,44.5144 -115,36.5929 z M 391.32328,685.97242 c -0.34194,-1.138 -1.47113,-9.6432 -2.50932,-18.9005 -4.33783,-38.6796 -18.55929,-69.9396 -43.77814,-96.2281 -22.08591,-23.0226 -42.54329,-35.4579 -72.40953,-44.0149 -59.20303,-16.9625 -122.47949,-1.6342 -164.28719,39.7975 -27.483535,27.2363 -42.743745,59.558 -47.659325,100.9442 -1.29909,10.9375 -2.87295,17.86 -4.17408,18.3593 -4.1549,1.5944 -29.75502,-3.1668 -36.06321,-6.7071 -4.30528,-2.4163 -7.79489,-6.2938 -10.6412,-11.824 l -4.23515,-8.2288 -1.01164,-124.185 -1.01164,-124.1851 22.05684,-55.4482 c 12.13127,-30.4966 32.40345,-83.131 45.04931,-116.9654 23.220785,-62.128 28.912755,-74.7889 35.545805,-79.0662 6.8417,-4.4118 41.67841,-7.3932 242.81958,-20.7808 41.42069,-2.7569 80.71034,-5.4805 87.31034,-6.0525 l 12,-1.04 v 211.2628 211.2628 h 332.68964 c 182.97931,0 332.68963,0.5786 332.68963,1.2857 0,0.7072 -5.267,6.4796 -11.7045,12.8276 -14.3405,14.1412 -28.9314,35.4878 -36.2139,52.9813 -5.6119,13.4804 -11.5933,38.4883 -11.6642,48.7674 -0.022,3.1862 -0.5017,8.5862 -1.0659,12 l -1.026,6.2069 H 721.98724 c -262.59879,0 -330.16931,-0.4228 -330.66396,-2.0689 z M 190.94543,395.08372 c 56.44138,-6.3006 106.90093,-11.9615 112.13233,-12.5797 5.2314,-0.6182 10.54361,-1.9528 11.80491,-2.9658 1.88016,-1.5099 2.46777,-17.7635 3.26198,-90.2279 l 0.96871,-88.3861 -16.91155,1.0401 c -184.18805,11.3279 -175.66997,10.5282 -182.25024,17.1085 -2.28384,2.2838 -5.28042,7.2533 -6.65907,11.0432 -1.37865,3.79 -12.6817,34.4495 -25.117885,68.1322 -29.27626,79.2932 -32.12573,87.8129 -32.12573,96.054 0,11.0472 5.69545,14.222 23.17242,12.917 5.00689,-0.3739 55.282745,-5.8349 111.724125,-12.1355 z m 1193.49767,280.13 c -3.7742,-44.0892 -19.6662,-79.3505 -48.4882,-107.5862 l -12.2493,-12 h 133.1558 133.1557 l 1.2267,45.7991 c 1.421,53.0534 3.3878,47.3241 -18.8539,54.9218 -7.8496,2.6815 -31.3955,10.9093 -52.3243,18.2841 l -38.0524,13.4088 h -48.236 -48.236 z M 517.83924,517.14482 c -10e-4,-0.2276 -0.18771,-115.6759 -0.41379,-256.5518 l -0.41107,-256.1379321 537.51722,3e-5 537.5174,2e-5 V 261.00682 517.55862 h -537.1036 c -295.40689,0 -537.10466,-0.1862 -537.10616,-0.4138 z m 502.55666,-122.2588 c 7.1677,-8.7527 21.9237,-26.9013 32.7911,-40.3302 10.8673,-13.429 20.5627,-25.2608 21.5452,-26.293 4.0446,-4.249 28.6036,-34.0151 58.4721,-70.8698 17.4731,-21.56 32.5233,-39.6661 33.4449,-40.2356 0.9215,-0.5696 1.6755,-2.1089 1.6755,-3.4207 0,-2.0196 -7.0737,-2.385 -46.1689,-2.385 h -46.1689 l 6.6332,-18.6207 c 3.6482,-10.2414 7.633,-21.9724 8.855,-26.069 1.222,-4.0965 8.9589,-26.8106 17.1932,-50.4757 8.2343,-23.665102 14.7842,-43.537302 14.5553,-44.160502 -0.2288,-0.6232 -10.0989,10.8721 -21.9333,25.5451 -11.8345,14.673002 -25.9863,31.878502 -31.4483,38.234602 -5.4621,6.356 -20.576,24.6507 -33.5864,40.6547 -37.9039,46.6253 -48.38267,59.3505 -61.99985,75.2907 -7.05518,8.2588 -12.82759,15.582 -12.82759,16.2739 0,0.6918 20.85517,1.2579 46.34484,1.2579 25.4897,0 46.3448,0.2179 46.3448,0.4842 0,0.2663 -8.2609,24.287 -18.3577,53.3793 -28.6884,82.6619 -31.4324,91.0152 -29.0194,88.3434 0.3426,-0.3793 6.4874,-7.8509 13.6552,-16.6036 z"
       id="path1" />
  </g>
</svg>
