<?xml version="1.0" encoding="UTF-8"?>
<!DOCTYPE svg PUBLIC "-//W3C//DTD SVG 1.1//EN" "http://www.w3.org/Graphics/SVG/1.1/DTD/svg11.dtd">
<!-- Creator: CorelDRAW -->
<svg xmlns="http://www.w3.org/2000/svg" xml:space="preserve" width="698px" height="698px" version="1.1" style="shape-rendering:geometricPrecision; text-rendering:geometricPrecision; image-rendering:optimizeQuality; fill-rule:evenodd; clip-rule:evenodd"
viewBox="0 0 2230.79 2230.79"
 xmlns:xlink="http://www.w3.org/1999/xlink"
 xmlns:xodm="http://www.corel.com/coreldraw/odm/2003">
 <defs>
  <style type="text/css">
   <![CDATA[
    .fil1 {fill:#2A3E4E}
    .fil0 {fill:#66B337}
    .fil2 {fill:#E37021}
    .fil3 {fill:#F4F4F4}
   ]]>
  </style>
 </defs>
 <g id="Слой_x0020_1">
  <metadata id="CorelCorpID_0Corel-Layer"/>
  <circle class="fil0" cx="1115.39" cy="1115.39" r="1115.39"/>
  <path class="fil1" d="M905.34 1332.84c0.92,-4.18 61.18,-76.55 69.51,-87.16 11.92,-15.17 23.01,-28.02 35.02,-43.32 11.49,-14.64 22.95,-28.87 35.02,-43.31 23.51,-28.12 46.42,-58.16 69.89,-86.81l69.64 -85.69c1.06,11.75 -9.01,57.75 -11.06,73.02 -3.29,24.56 -7.99,48.63 -11.66,73.12 -4.69,31.3 -21.72,124.54 -23.23,146.18 46.43,0.03 108.73,-1.05 154.89,0.27 -1.31,4.34 -277.27,344.58 -279.52,345.64l46.53 -291.59 -155.03 -0.35zm513.76 -849.47c6.97,-1.12 21.53,-0.73 28.55,1.21 0.8,7.89 2.21,42.38 -0.68,46.86 -2.05,1.87 2.82,0.64 -3.55,1.97l-25.17 0.24c-15.99,0.26 -29.01,22.67 -19.96,40.65 12.82,25.47 40.7,10.47 47.76,17.03 3.2,2.97 1.44,28.96 1.43,35.89l-1.82 9.82c-8.63,3.99 -24.33,-1.87 -35.67,4.53 -7.57,4.26 -15.1,13.09 -14.76,26.02 0.95,36.96 46.28,25.57 50.59,29.04 3.58,6.5 2.45,37.42 0.98,46.69l-280.73 -0.42c-1.57,-8.16 -2.41,-40.58 0.73,-45.96 7.38,-4 24.41,1.26 35.58,-4.73 8.42,-4.51 14.98,-12.33 14.87,-25.88 -0.27,-33.52 -35.11,-26.6 -51.05,-28.86 -1.33,-7.57 -1.94,-40.63 0.36,-45.87 7.97,-4.67 25.98,0.3 35.67,-4.79 8.11,-4.26 14.99,-12.84 15.02,-25.74 0.07,-35.8 -40.57,-26.86 -51.31,-29.61 -0.81,-8.37 -1.56,-38.94 0.46,-45.13 1.82,-2.42 6.89,-1.65 10.07,-1.63 3.29,0.02 6.59,0.06 9.88,0.05 16.51,-0.05 31.1,-9.19 30.88,-28.96 -0.45,-40.19 -47.68,-25 -49.96,-30 -0.18,-0.4 -0.66,-0.24 -0.96,-0.42 -1.76,-5.69 -2.13,-41.51 0.81,-45.18 6.02,-4.04 26.22,0.65 35.68,-4.61 8.51,-4.73 14.76,-13.4 14.39,-26.31 -1,-35.11 -41.12,-26.1 -51.08,-28.63 -2.26,-14.13 -1.3,-16.21 -7.26,-28.38 -6.87,-14.03 -33.42,-55.95 -43.55,-60.6 -10.1,4.85 -37.36,47.46 -43.94,61.45 -5.57,11.86 -4.06,14.72 -6.94,27.4 -12.96,3.1 -23.61,-2.27 -36,4.33 -8.03,4.28 -15.23,12.48 -15.16,25.68 0.21,38.05 44.54,24.26 50.36,29.58 2.93,4.06 2.65,39.87 0.6,45.33 -5.76,6.61 -50.89,-8.73 -50.92,30.36 0,12.7 7.19,21.56 15.07,25.73 9.99,5.3 22.18,1.22 32.88,3.65l1.95 0.75c2.18,-3.58 4.46,42.04 0.3,45.55 -7.39,4.21 -25.19,-1.24 -35.64,4.62 -8,4.48 -15.07,12.99 -14.6,26.23 1.23,34.63 39.28,26.72 46.88,28.12l1.97 0.59c5.97,1.79 3.58,39.53 2.35,46.56 -12.35,1.65 -52.08,-5.92 -51.17,30 0.97,38.24 43.38,22.95 50.41,29.45 3.17,4.48 1.39,16.55 1.38,23.17 -0.02,6.64 1.39,17.11 -1.12,22.11 -2,1.05 -272.3,2.9 -279.51,0.34 -3.52,-7.45 -1.08,-26.29 -1.15,-35.96l0.39 -7.11c0.07,-0.32 0.24,-0.75 0.3,-1 1.55,-6.28 27.11,-1.12 36.39,-6.43 19.6,-11.21 19.86,-40.48 -0.68,-50.91 -11.43,-5.81 -26.4,-0.39 -34.81,-4.17 -3.09,-2.5 -2.54,-43.5 -0.3,-45.69 5.29,-5.17 50.49,8.63 50.61,-30.32 0.1,-35.6 -41.15,-27.3 -51.42,-29.46 -0.82,-7.97 -1.71,-33.97 -0.06,-42.69 0.07,-0.37 0.23,-0.8 0.3,-1.1 1.54,-6.77 27.18,-1.77 36.12,-6.45 19.43,-10.18 20.28,-40.71 -0.09,-51.03 -10.48,-5.32 -26.87,-0.24 -35.81,-4.69 -2.13,-5.67 -2.02,-39.29 0.04,-46.27 12.35,-1.46 26.87,1.75 36.57,-3.83 19.29,-11.11 18.84,-40.99 -1.47,-51.04 -10.28,-5.09 -26.73,-0.06 -34.78,-4.48 -1.83,-3.81 -1.51,-10.45 -2.87,-15.45 -4.78,-17.66 -37.3,-65.92 -48.36,-72.96 -10.66,5.6 -37.31,47.12 -44.09,61.34 -14.27,29.94 5.94,27.58 -26.96,28.31 -16.41,0.36 -31.66,9.72 -31.53,29.25 0.08,12.01 7.72,20.95 14.98,25.2 11.57,6.78 26.4,0.27 36.07,4.18 1.87,5.29 1.57,38.6 0.53,45.79 -10.25,4.06 -24.03,-2.3 -36.76,4.79 -7.43,4.14 -14.67,13.66 -14.78,25.34 -0.12,12.3 7.69,21.68 15.49,25.82 11.75,6.23 26.1,0.57 36.13,4.15 0.67,7.91 2.61,41.13 -1,45.34 -2.55,2.24 -4.62,1.43 -9.21,1.34 -3.29,-0.06 -6.6,-0.14 -9.89,-0.08 -17.08,0.34 -31.98,9.89 -31.48,29.89 0.29,11.97 7.78,20.42 15.48,24.62 5.11,2.78 10.57,3.3 17.2,3.33l14.66 0.19c0.36,0.07 0.71,0.19 1.03,0.27l1.8 0.82c1.57,-2.68 3.98,41.63 0.73,45.15 -2.83,3.08 -15.31,1.08 -19.44,1.2 -6.94,0.2 -12.07,0.98 -17.14,3.98 -19.6,11.6 -18.28,39.98 0.93,50.5 8.91,4.89 32.39,1.89 35.41,5.09 2.37,2.95 2.45,40.58 0.36,44.55 -1.78,1.34 0.32,0.41 -2.65,1.14l-49.92 0.24c-26.88,0.07 -79.34,-3.41 -101.98,5.89 -54.49,22.37 -64.07,101.09 -13.21,133.86 15.95,10.29 20.93,8.7 41.35,13.02l-0.48 820.88c-18.41,2.05 -29.1,4.64 -41.67,13.41 -9.96,6.94 -19.34,17.18 -24.99,28.84 -14.56,30.07 -8.06,60.21 9.08,81.94 18.99,24.07 39.86,28.13 79.26,28.27l1077.24 0c19.41,-0.07 31.17,1.25 48.26,-5.46 41.11,-16.14 61.29,-64.19 39.28,-106.33 -11.04,-21.14 -31.57,-35.45 -54.76,-39.53 -1.69,-0.3 -4.84,-0.57 -6.13,-0.89l-3.78 -1.57c-0.16,-0.43 -0.62,-0.34 -0.88,-0.58 -3.3,-4.64 -0.79,-535.07 -0.85,-615.42 -0.01,-19.61 -1.64,-188.48 0.56,-203.58 20.5,-3.74 25.16,-3.09 40.83,-13.01 38.39,-24.33 43.13,-76.54 17.38,-110.61 -19.92,-26.36 -46.43,-29.21 -78.69,-29.18 -12.9,0.01 -89.74,1.41 -101.64,0.15l-3.99 -1.09c-0.15,-0.37 -0.6,-0.24 -0.85,-0.44 -2.16,-4.39 -2.04,-41.28 0.32,-44.64 4.28,-3.21 26.44,-0.2 35.45,-4.95 19.48,-10.26 20.32,-41.16 -0.7,-51.31 -5.05,-2.44 -10.17,-3.1 -16.71,-3.16 -4.16,-0.04 -15.24,1.8 -18.1,-1.36 -2.53,-3.85 -2.33,-39.56 -0.34,-44.56 1.95,-1.58 -0.34,-0.45 2.75,-1.32 2.96,-0.84 -1.12,-0.01 2.17,-0.42 0.85,-0.11 3.87,-0.04 4.89,-0.03 8.71,0.13 18.52,0.56 25.84,-3.29 19.49,-10.22 20.43,-41 -0.27,-51.3 -11.9,-5.92 -27.07,-0.42 -35.77,-4.57 -0.91,-7.24 -1.51,-39.22 0.35,-44.32 1.19,-1.74 3.54,-1.7 4.96,-1.9l14.79 0.03c32.26,-0.16 43.9,-40.35 15.75,-54.61 -12.47,-6.32 -26.61,-0.49 -35.81,-4.53 -1.1,-7.43 -2.37,-41.13 0.84,-45.31 3.16,-3.29 14.4,-1.33 19.18,-1.37 34.25,-0.27 42.16,-39.97 16.72,-53.79 -10.25,-5.56 -23.64,-2.89 -36.21,-4.15 -2.85,-12.44 -1.87,-16.58 -7.43,-28.14 -6.93,-14.39 -33.21,-55.79 -44.1,-61.39 -11.4,7.06 -36.25,46.43 -43.82,61.72 -4.2,8.45 -5.63,23.49 -7.48,26.84 -9.1,4.43 -24.86,-1.25 -35.54,4.74 -19.5,10.94 -20.04,40.48 0.2,51.13 10.16,5.34 26.79,-0.08 34.91,4.02 2.28,2.69 1.02,-0.64 1.8,4.77 1.11,7.78 0.5,35.22 -0.59,41.39 -9.89,1.96 -22.15,-0.8 -31.07,1.98 -31.06,9.72 -22.62,56.57 3.46,55.24z"/>
  <rect class="fil2" x="552.58" y="896.13" width="1124.18" height="819.56"/>
  <path class="fil3" d="M905.34 1332.84l155.03 0.35 -46.53 291.59c2.25,-1.06 278.21,-341.3 279.52,-345.64 -46.16,-1.32 -108.46,-0.24 -154.89,-0.27 1.51,-21.64 18.54,-114.88 23.23,-146.18 3.67,-24.49 8.37,-48.56 11.66,-73.12 2.05,-15.27 12.12,-61.27 11.06,-73.02l-69.64 85.69c-23.47,28.65 -46.38,58.69 -69.89,86.81 -12.07,14.44 -23.53,28.67 -35.02,43.31 -12.01,15.3 -23.1,28.15 -35.02,43.32 -8.33,10.61 -68.59,82.98 -69.51,87.16z"/>
 </g>
</svg>
