<?xml version="1.0" encoding="UTF-8"?>
<!DOCTYPE svg PUBLIC "-//W3C//DTD SVG 1.1//EN" "http://www.w3.org/Graphics/SVG/1.1/DTD/svg11.dtd">
<!-- Creator: CorelDRAW -->
<svg xmlns="http://www.w3.org/2000/svg" xml:space="preserve" width="698px" height="698px" version="1.1" style="shape-rendering:geometricPrecision; text-rendering:geometricPrecision; image-rendering:optimizeQuality; fill-rule:evenodd; clip-rule:evenodd"
viewBox="0 0 324.51 324.51"
 xmlns:xlink="http://www.w3.org/1999/xlink"
 xmlns:xodm="http://www.corel.com/coreldraw/odm/2003">
 <defs>
  <style type="text/css">
   <![CDATA[
    .fil1 {fill:#2A3E4E}
    .fil0 {fill:#3675B4}
    .fil2 {fill:#E37021}
    .fil3 {fill:#F4F4F4}
   ]]>
  </style>
 </defs>
 <g id="Слой_x0020_1">
  <metadata id="CorelCorpID_0Corel-Layer"/>
  <circle class="fil0" cx="162.26" cy="162.26" r="162.26"/>
  <path class="fil1" d="M131.7 193.89c0.13,-0.61 8.9,-11.14 10.11,-12.68 1.74,-2.21 3.35,-4.08 5.1,-6.3 1.67,-2.13 3.33,-4.2 5.09,-6.3 3.42,-4.09 6.75,-8.46 10.17,-12.63l10.13 -12.47c0.15,1.71 -1.31,8.4 -1.61,10.63 -0.48,3.57 -1.16,7.07 -1.7,10.63 -0.68,4.55 -3.16,18.12 -3.38,21.27 6.76,0 15.82,-0.16 22.54,0.04 -0.2,0.63 -40.34,50.12 -40.67,50.28l6.77 -42.42 -22.55 -0.05zm74.74 -123.57c1.01,-0.17 3.13,-0.11 4.15,0.17 0.11,1.15 0.32,6.17 -0.1,6.82 -0.3,0.27 0.41,0.09 -0.52,0.28l-3.66 0.04c-2.32,0.04 -4.22,3.3 -2.9,5.91 1.86,3.71 5.92,1.53 6.95,2.48 0.46,0.43 0.21,4.21 0.2,5.22l-0.26 1.43c-1.26,0.58 -3.54,-0.27 -5.19,0.66 -1.1,0.62 -2.2,1.9 -2.15,3.78 0.14,5.38 6.74,3.72 7.36,4.23 0.52,0.94 0.36,5.44 0.15,6.79l-40.84 -0.06c-0.23,-1.19 -0.35,-5.9 0.1,-6.69 1.08,-0.58 3.56,0.19 5.18,-0.68 1.22,-0.66 2.18,-1.8 2.16,-3.77 -0.04,-4.88 -5.1,-3.87 -7.42,-4.2 -0.2,-1.1 -0.28,-5.91 0.05,-6.67 1.16,-0.68 3.78,0.04 5.19,-0.7 1.18,-0.62 2.18,-1.86 2.18,-3.74 0.01,-5.21 -5.9,-3.91 -7.46,-4.31 -0.12,-1.22 -0.23,-5.66 0.07,-6.56 0.26,-0.36 1,-0.24 1.46,-0.24 0.48,0 0.96,0.01 1.44,0.01 2.4,-0.01 4.52,-1.34 4.49,-4.22 -0.06,-5.84 -6.94,-3.63 -7.27,-4.36 -0.02,-0.06 -0.09,-0.04 -0.14,-0.06 -0.25,-0.83 -0.31,-6.04 0.12,-6.57 0.88,-0.59 3.81,0.09 5.19,-0.67 1.24,-0.69 2.15,-1.95 2.09,-3.83 -0.14,-5.11 -5.98,-3.8 -7.43,-4.17 -0.32,-2.05 -0.19,-2.35 -1.05,-4.12 -1,-2.05 -4.86,-8.14 -6.34,-8.82 -1.47,0.71 -5.43,6.9 -6.39,8.94 -0.81,1.72 -0.59,2.14 -1.01,3.98 -1.88,0.46 -3.43,-0.33 -5.24,0.63 -1.16,0.63 -2.21,1.82 -2.2,3.74 0.03,5.54 6.48,3.53 7.32,4.3 0.43,0.59 0.39,5.8 0.09,6.6 -0.84,0.96 -7.4,-1.27 -7.4,4.41 -0.01,1.85 1.04,3.14 2.19,3.75 1.45,0.77 3.22,0.17 4.78,0.53l0.28 0.11c0.32,-0.52 0.65,6.11 0.05,6.62 -1.08,0.62 -3.67,-0.18 -5.19,0.67 -1.16,0.66 -2.19,1.89 -2.12,3.82 0.18,5.04 5.71,3.89 6.82,4.09l0.28 0.09c0.87,0.26 0.53,5.75 0.35,6.77 -1.8,0.24 -7.58,-0.86 -7.45,4.36 0.14,5.57 6.31,3.34 7.34,4.29 0.46,0.65 0.2,2.41 0.2,3.37 -0.01,0.97 0.2,2.49 -0.17,3.22 -0.29,0.15 -39.61,0.42 -40.66,0.04 -0.51,-1.08 -0.15,-3.82 -0.16,-5.23l0.05 -1.03c0.01,-0.05 0.04,-0.11 0.05,-0.15 0.22,-0.91 3.94,-0.16 5.29,-0.93 2.85,-1.63 2.89,-5.89 -0.1,-7.41 -1.66,-0.84 -3.84,-0.05 -5.06,-0.6 -0.45,-0.37 -0.37,-6.33 -0.05,-6.65 0.77,-0.75 7.35,1.25 7.37,-4.41 0.01,-5.18 -5.99,-3.97 -7.48,-4.29 -0.12,-1.16 -0.25,-4.94 -0.01,-6.21 0.01,-0.05 0.03,-0.11 0.04,-0.16 0.23,-0.98 3.96,-0.25 5.26,-0.94 2.82,-1.48 2.95,-5.92 -0.02,-7.42 -1.52,-0.77 -3.91,-0.03 -5.21,-0.68 -0.31,-0.83 -0.29,-5.72 0.01,-6.73 1.8,-0.21 3.91,0.25 5.32,-0.56 2.8,-1.61 2.74,-5.96 -0.22,-7.42 -1.49,-0.74 -3.88,-0.01 -5.05,-0.66 -0.27,-0.55 -0.22,-1.52 -0.42,-2.24 -0.7,-2.57 -5.43,-9.59 -7.04,-10.62 -1.55,0.82 -5.42,6.86 -6.41,8.93 -2.08,4.35 0.86,4.01 -3.92,4.11 -2.39,0.06 -4.61,1.42 -4.59,4.26 0.01,1.75 1.12,3.05 2.18,3.67 1.68,0.98 3.84,0.04 5.25,0.6 0.27,0.77 0.23,5.62 0.07,6.66 -1.49,0.6 -3.49,-0.33 -5.34,0.7 -1.08,0.6 -2.14,1.99 -2.15,3.69 -0.02,1.79 1.12,3.15 2.25,3.75 1.71,0.91 3.8,0.09 5.26,0.61 0.09,1.15 0.38,5.98 -0.15,6.59 -0.37,0.33 -0.67,0.21 -1.34,0.2 -0.48,-0.01 -0.96,-0.02 -1.44,-0.01 -2.48,0.05 -4.65,1.44 -4.58,4.34 0.05,1.75 1.13,2.97 2.26,3.59 0.74,0.4 1.53,0.48 2.5,0.48l2.13 0.03c0.05,0.01 0.1,0.03 0.15,0.04l0.26 0.12c0.23,-0.39 0.58,6.05 0.11,6.56 -0.41,0.45 -2.23,0.16 -2.83,0.18 -1.01,0.03 -1.76,0.14 -2.49,0.58 -2.86,1.69 -2.66,5.81 0.13,7.35 1.3,0.71 4.71,0.27 5.15,0.73 0.35,0.43 0.36,5.91 0.05,6.49 -0.25,0.19 0.05,0.05 -0.38,0.16l-7.26 0.04c-3.91,0.01 -11.54,-0.5 -14.84,0.85 -7.92,3.26 -9.32,14.71 -1.92,19.48 2.32,1.49 3.04,1.26 6.02,1.89l-0.07 119.41c-2.68,0.3 -4.24,0.68 -6.07,1.95 -1.44,1.01 -2.81,2.5 -3.63,4.2 -2.12,4.37 -1.17,8.76 1.32,11.92 2.76,3.5 5.8,4.09 11.53,4.11l156.7 0c2.83,-0.01 4.54,0.18 7.03,-0.79 5.98,-2.35 8.91,-9.34 5.71,-15.47 -1.61,-3.08 -4.59,-5.16 -7.97,-5.75 -0.24,-0.04 -0.7,-0.08 -0.89,-0.13l-0.55 -0.23c-0.02,-0.06 -0.09,-0.05 -0.13,-0.08 -0.48,-0.68 -0.11,-77.84 -0.12,-89.53 0,-2.85 -0.24,-27.42 0.08,-29.61 2.99,-0.55 3.66,-0.45 5.94,-1.9 5.59,-3.54 6.28,-11.13 2.53,-16.09 -2.9,-3.83 -6.75,-4.25 -11.45,-4.24 -1.87,0 -13.05,0.2 -14.78,0.02l-0.58 -0.16c-0.03,-0.05 -0.09,-0.03 -0.13,-0.06 -0.31,-0.64 -0.29,-6.01 0.05,-6.5 0.62,-0.46 3.85,-0.02 5.16,-0.71 2.83,-1.5 2.95,-5.99 -0.1,-7.47 -0.74,-0.35 -1.49,-0.45 -2.44,-0.46 -0.6,-0.01 -2.21,0.26 -2.63,-0.2 -0.37,-0.56 -0.34,-5.75 -0.05,-6.48 0.29,-0.23 -0.05,-0.06 0.4,-0.19 0.43,-0.12 -0.16,0 0.32,-0.06 0.12,-0.02 0.56,-0.01 0.71,-0.01 1.27,0.02 2.69,0.08 3.76,-0.48 2.83,-1.48 2.97,-5.96 -0.04,-7.46 -1.73,-0.86 -3.94,-0.06 -5.2,-0.66 -0.14,-1.06 -0.22,-5.71 0.05,-6.45 0.17,-0.25 0.51,-0.25 0.72,-0.28l2.15 0.01c4.69,-0.03 6.38,-5.87 2.29,-7.95 -1.81,-0.92 -3.87,-0.07 -5.21,-0.66 -0.16,-1.08 -0.34,-5.98 0.12,-6.59 0.46,-0.48 2.1,-0.19 2.79,-0.2 4.98,-0.03 6.14,-5.81 2.44,-7.82 -1.5,-0.81 -3.44,-0.42 -5.27,-0.6 -0.42,-1.81 -0.27,-2.42 -1.08,-4.1 -1.01,-2.09 -4.83,-8.11 -6.42,-8.93 -1.66,1.03 -5.27,6.76 -6.37,8.98 -0.61,1.23 -0.82,3.42 -1.09,3.91 -1.32,0.64 -3.62,-0.19 -5.17,0.68 -2.84,1.6 -2.92,5.89 0.03,7.44 1.48,0.78 3.9,-0.01 5.08,0.59 0.33,0.39 0.15,-0.1 0.26,0.69 0.16,1.13 0.07,5.12 -0.09,6.02 -1.44,0.29 -3.22,-0.11 -4.52,0.29 -4.52,1.41 -3.29,8.23 0.51,8.04z"/>
  <rect class="fil2" x="80.38" y="130.36" width="163.53" height="119.22"/>
  <path class="fil3" d="M131.7 193.89l22.55 0.05 -6.77 42.42c0.33,-0.16 40.47,-49.65 40.67,-50.28 -6.72,-0.2 -15.78,-0.04 -22.54,-0.04 0.22,-3.15 2.7,-16.72 3.38,-21.27 0.54,-3.56 1.22,-7.06 1.7,-10.63 0.3,-2.23 1.76,-8.92 1.61,-10.63l-10.13 12.47c-3.42,4.17 -6.75,8.54 -10.17,12.63 -1.76,2.1 -3.42,4.17 -5.09,6.3 -1.75,2.22 -3.36,4.09 -5.1,6.3 -1.21,1.54 -9.98,12.07 -10.11,12.68z"/>
 </g>
</svg>
