<?xml version="1.0" encoding="UTF-8"?>
<!DOCTYPE svg PUBLIC "-//W3C//DTD SVG 1.1//EN" "http://www.w3.org/Graphics/SVG/1.1/DTD/svg11.dtd">
<!-- Creator: CorelDRAW -->
<svg xmlns="http://www.w3.org/2000/svg" xml:space="preserve" width="2162px" height="2788px" version="1.1" style="shape-rendering:geometricPrecision; text-rendering:geometricPrecision; image-rendering:optimizeQuality; fill-rule:evenodd; clip-rule:evenodd"
viewBox="0 0 604.86 780"
 xmlns:xlink="http://www.w3.org/1999/xlink"
 xmlns:xodm="http://www.corel.com/coreldraw/odm/2003">
 <defs>
  <style type="text/css">
   <![CDATA[
    .fil1 {fill:#3675B4}
    .fil0 {fill:#2A3E4E}
    .fil2 {fill:#F4F4F4}
   ]]>
  </style>
 </defs>
 <g id="Слой_x0020_1">
  <metadata id="CorelCorpID_0Corel-Layer"/>
  <path class="fil0" d="M202.4 524.43c0.44,-1.99 29.13,-36.45 33.11,-41.51 5.67,-7.22 10.95,-13.34 16.67,-20.62 5.47,-6.97 10.93,-13.75 16.68,-20.63 11.19,-13.39 22.1,-27.69 33.28,-41.34l33.16 -40.8c0.51,5.59 -4.29,27.5 -5.27,34.77 -1.57,11.69 -3.8,23.16 -5.55,34.82 -2.23,14.9 -10.34,59.31 -11.06,69.61 22.11,0.01 51.77,-0.5 73.76,0.13 -0.63,2.06 -132.04,164.08 -133.11,164.59l22.16 -138.85 -73.83 -0.17zm244.65 -404.51c3.32,-0.54 10.25,-0.35 13.6,0.57 0.38,3.76 1.05,20.18 -0.33,22.32 -0.97,0.89 1.35,0.31 -1.69,0.94l-11.98 0.11c-7.62,0.12 -13.82,10.8 -9.51,19.36 6.11,12.13 19.38,4.98 22.74,8.11 1.53,1.41 0.69,13.79 0.69,17.09l-0.87 4.67c-4.11,1.91 -11.59,-0.89 -16.99,2.16 -3.6,2.03 -7.19,6.24 -7.03,12.39 0.46,17.6 22.04,12.18 24.09,13.83 1.71,3.1 1.17,17.82 0.47,22.24l-133.68 -0.21c-0.74,-3.88 -1.14,-19.32 0.35,-21.88 3.52,-1.9 11.62,0.6 16.94,-2.25 4.01,-2.15 7.14,-5.88 7.08,-12.32 -0.12,-15.97 -16.72,-12.68 -24.31,-13.75 -0.63,-3.6 -0.92,-19.35 0.17,-21.84 3.8,-2.23 12.38,0.14 16.99,-2.28 3.86,-2.03 7.14,-6.12 7.15,-12.26 0.04,-17.05 -19.31,-12.79 -24.43,-14.1 -0.39,-3.99 -0.74,-18.54 0.22,-21.49 0.86,-1.16 3.28,-0.79 4.8,-0.78 1.56,0.01 3.13,0.03 4.7,0.03 7.86,-0.03 14.81,-4.38 14.7,-13.79 -0.21,-19.14 -22.7,-11.91 -23.78,-14.29 -0.09,-0.19 -0.32,-0.12 -0.46,-0.2 -0.84,-2.71 -1.02,-19.77 0.38,-21.51 2.87,-1.93 12.49,0.3 16.99,-2.2 4.06,-2.25 7.03,-6.38 6.86,-12.53 -0.48,-16.72 -19.59,-12.43 -24.33,-13.63 -1.07,-6.73 -0.62,-7.72 -3.46,-13.52 -3.27,-6.68 -15.91,-26.64 -20.73,-28.85 -4.81,2.31 -17.8,22.6 -20.93,29.26 -2.65,5.64 -1.93,7.01 -3.31,13.05 -6.16,1.47 -11.24,-1.09 -17.14,2.06 -3.82,2.04 -7.25,5.94 -7.22,12.23 0.1,18.11 21.21,11.55 23.99,14.08 1.39,1.93 1.26,18.99 0.28,21.59 -2.74,3.14 -24.23,-4.16 -24.24,14.45 -0.01,6.05 3.42,10.27 7.17,12.26 4.76,2.52 10.56,0.58 15.66,1.74l0.93 0.35c1.03,-1.7 2.12,20.02 0.14,21.69 -3.52,2.01 -12,-0.59 -16.97,2.2 -3.81,2.14 -7.18,6.19 -6.96,12.49 0.59,16.49 18.71,12.73 22.33,13.39l0.94 0.28c2.84,0.86 1.7,18.83 1.11,22.17 -5.88,0.79 -24.79,-2.81 -24.36,14.29 0.46,18.21 20.66,10.93 24.01,14.03 1.5,2.13 0.66,7.88 0.65,11.03 -0.01,3.16 0.66,8.15 -0.53,10.53 -0.95,0.5 -129.67,1.38 -133.1,0.16 -1.68,-3.55 -0.52,-12.52 -0.55,-17.12l0.19 -3.39c0.03,-0.15 0.11,-0.36 0.14,-0.48 0.74,-2.99 12.91,-0.53 17.33,-3.06 9.33,-5.34 9.46,-19.27 -0.33,-24.24 -5.44,-2.77 -12.57,-0.19 -16.57,-1.99 -1.47,-1.19 -1.21,-20.71 -0.15,-21.75 2.52,-2.47 24.05,4.11 24.1,-14.44 0.05,-16.95 -19.59,-13 -24.48,-14.03 -0.39,-3.8 -0.82,-16.18 -0.03,-20.33 0.03,-0.18 0.11,-0.38 0.14,-0.52 0.74,-3.23 12.95,-0.84 17.2,-3.07 9.25,-4.85 9.66,-19.39 -0.04,-24.3 -4.99,-2.54 -12.8,-0.12 -17.05,-2.24 -1.02,-2.7 -0.96,-18.71 0.02,-22.03 5.88,-0.7 12.79,0.83 17.41,-1.83 9.19,-5.28 8.97,-19.52 -0.7,-24.3 -4.9,-2.42 -12.73,-0.03 -16.56,-2.13 -0.87,-1.82 -0.72,-4.98 -1.37,-7.36 -2.28,-8.41 -17.76,-31.39 -23.03,-34.74 -5.07,2.67 -17.76,22.44 -20.99,29.2 -6.8,14.27 2.82,13.14 -12.84,13.48 -7.82,0.18 -15.08,4.64 -15.01,13.94 0.03,5.71 3.67,9.97 7.13,12 5.51,3.22 12.57,0.13 17.18,1.99 0.89,2.52 0.74,18.38 0.25,21.8 -4.88,1.93 -11.45,-1.09 -17.51,2.28 -3.54,1.97 -6.98,6.51 -7.03,12.07 -0.06,5.86 3.66,10.32 7.37,12.29 5.59,2.97 12.43,0.28 17.21,1.98 0.32,3.77 1.24,19.59 -0.48,21.59 -1.21,1.07 -2.2,0.68 -4.39,0.64 -1.57,-0.03 -3.14,-0.07 -4.71,-0.04 -8.13,0.16 -15.23,4.71 -14.99,14.23 0.14,5.7 3.71,9.73 7.38,11.73 2.43,1.32 5.03,1.57 8.18,1.58l6.99 0.1c0.17,0.03 0.34,0.08 0.48,0.12l0.87 0.4c0.74,-1.28 1.89,19.82 0.34,21.49 -1.35,1.47 -7.29,0.52 -9.26,0.58 -3.3,0.09 -5.74,0.46 -8.16,1.89 -9.33,5.53 -8.7,19.04 0.44,24.05 4.25,2.33 15.43,0.9 16.87,2.42 1.13,1.41 1.17,19.33 0.17,21.22 -0.85,0.63 0.15,0.19 -1.26,0.54l-23.77 0.11c-12.81,0.04 -37.79,-1.62 -48.57,2.81 -25.94,10.65 -30.51,48.14 -6.29,63.74 7.6,4.9 9.97,4.14 19.7,6.2l-0.24 390.9c-8.76,0.97 -13.86,2.21 -19.84,6.38 -4.74,3.31 -9.21,8.18 -11.9,13.74 -6.93,14.32 -3.84,28.67 4.33,39.02 9.04,11.46 18.98,13.39 37.74,13.46l512.97 0c9.25,-0.04 14.85,0.6 22.99,-2.6 19.57,-7.69 29.18,-30.57 18.7,-50.64 -5.26,-10.06 -15.04,-16.88 -26.08,-18.82 -0.8,-0.14 -2.3,-0.27 -2.91,-0.42l-1.81 -0.75c-0.07,-0.21 -0.29,-0.16 -0.41,-0.28 -1.58,-2.21 -0.38,-254.79 -0.41,-293.06 -0.01,-9.33 -0.78,-89.75 0.26,-96.94 9.77,-1.78 11.99,-1.47 19.45,-6.2 18.28,-11.58 20.53,-36.44 8.28,-52.66 -9.49,-12.56 -22.11,-13.91 -37.48,-13.9 -6.14,0.01 -42.73,0.67 -48.4,0.07l-1.9 -0.52c-0.07,-0.17 -0.28,-0.11 -0.4,-0.21 -1.03,-2.09 -0.98,-19.66 0.15,-21.26 2.04,-1.53 12.59,-0.09 16.88,-2.35 9.28,-4.89 9.68,-19.6 -0.33,-24.43 -2.41,-1.17 -4.85,-1.48 -7.96,-1.51 -1.98,-0.02 -7.26,0.86 -8.62,-0.65 -1.2,-1.83 -1.11,-18.83 -0.16,-21.22 0.93,-0.75 -0.16,-0.21 1.31,-0.63 1.41,-0.4 -0.53,0 1.03,-0.2 0.41,-0.05 1.85,-0.02 2.33,-0.01 4.15,0.06 8.82,0.26 12.31,-1.56 9.28,-4.87 9.73,-19.53 -0.14,-24.44 -5.66,-2.81 -12.88,-0.2 -17.02,-2.17 -0.44,-3.45 -0.72,-18.68 0.16,-21.1 0.57,-0.83 1.69,-0.81 2.36,-0.91l7.04 0.01c15.37,-0.07 20.91,-19.21 7.51,-26 -5.94,-3.01 -12.68,-0.23 -17.06,-2.16 -0.52,-3.54 -1.12,-19.59 0.4,-21.58 1.51,-1.56 6.86,-0.63 9.14,-0.65 16.3,-0.13 20.07,-19.03 7.96,-25.61 -4.88,-2.65 -11.26,-1.38 -17.24,-1.98 -1.36,-5.92 -0.89,-7.89 -3.54,-13.4 -3.3,-6.85 -15.81,-26.56 -21,-29.23 -5.43,3.36 -17.26,22.11 -20.87,29.39 -2,4.03 -2.68,11.18 -3.56,12.78 -4.33,2.11 -11.84,-0.59 -16.93,2.26 -9.28,5.21 -9.54,19.27 0.1,24.34 4.84,2.55 12.76,-0.03 16.62,1.92 1.09,1.28 0.49,-0.3 0.86,2.27 0.53,3.71 0.24,16.77 -0.28,19.71 -4.71,0.93 -10.55,-0.38 -14.79,0.95 -14.8,4.62 -10.78,26.93 1.64,26.3z"/>
  <rect class="fil1" x="35.81" y="316.47" width="533.96" height="390.27"/>
  <path class="fil2" d="M202.4 524.43l73.83 0.17 -22.16 138.85c1.07,-0.51 132.48,-162.53 133.11,-164.59 -21.99,-0.63 -51.65,-0.12 -73.76,-0.13 0.72,-10.3 8.83,-54.71 11.06,-69.61 1.75,-11.66 3.98,-23.13 5.55,-34.82 0.98,-7.27 5.78,-29.18 5.27,-34.77l-33.16 40.8c-11.18,13.65 -22.09,27.95 -33.28,41.34 -5.75,6.88 -11.21,13.66 -16.68,20.63 -5.72,7.28 -11,13.4 -16.67,20.62 -3.98,5.06 -32.67,39.52 -33.11,41.51z"/>
 </g>
</svg>
